<svg width="93" height="95" viewBox="0 0 93 95" fill="none" xmlns="http://www.w3.org/2000/svg">
<path d="M72.9 25.1C71.9 11.1 60.3 0 46 0C31.7 0 20 11.1 19.1 25.1C8.50001 25.6 0 34.4 0 45.2C0 56.3 9.00001 65.3 20.1 65.3H72C83.1 65.3 92.1 56.3 92.1 45.2C92 34.4 83.5 25.6 72.9 25.1Z" fill="url(#paint0_radial_702_1576)"/>
<path d="M45.9999 27.5997C38.3999 21.4997 35.4999 12.0997 39.3999 6.69971C43.2999 1.29971 52.6999 1.89971 60.1999 7.99971C67.7999 14.0997 70.6999 23.4997 66.7999 28.8997C62.8999 34.3997 53.4999 33.7997 45.9999 27.5997Z" fill="url(#paint1_radial_702_1576)"/>
<path opacity="0.4" d="M73 45.8003C67 41.0003 64.7 33.6003 67.8 29.4003C70.9 25.2003 78.2 25.6003 84.2 30.5003C90.2 35.3003 92.5 42.7003 89.4 46.9003C86.3 51.1003 79 50.6003 73 45.8003Z" fill="url(#paint2_radial_702_1576)"/>
<path opacity="0.2" d="M14.3 46.5C9.89998 39.6 4.79997 36.3 2.89997 39.1C0.999968 41.9 2.99997 49.7 7.39997 56.5C11.8 63.4 16.9 66.7 18.8 63.9C20.7 61.1 18.7 53.3 14.3 46.5Z" fill="url(#paint3_radial_702_1576)"/>
<path d="M23.4999 77.7002C22.3999 79.7002 19.8999 80.3002 17.8999 79.2002C15.8999 78.1002 15.2999 75.6002 16.3999 73.6002C17.4999 71.6002 24.5999 67.7002 24.5999 67.7002C24.5999 67.7002 24.5999 75.7002 23.4999 77.7002Z" fill="url(#paint4_radial_702_1576)"/>
<path d="M16.5 77.0002C15.9 75.3002 16.1999 73.6002 17.3999 73.1002C18.4999 72.6002 19.9 73.6002 20.6 75.2002C21.2 76.9002 20.7999 78.6002 19.6999 79.1002C18.4999 79.6002 17.1 78.7002 16.5 77.0002Z" fill="url(#paint5_radial_702_1576)"/>
<path d="M40.6999 77.7002C39.5999 79.7002 37.0999 80.3002 35.0999 79.2002C33.0999 78.1002 32.4999 75.6002 33.5999 73.6002C34.6999 71.6002 41.7999 67.7002 41.7999 67.7002C41.7999 67.7002 41.7999 75.7002 40.6999 77.7002Z" fill="url(#paint6_radial_702_1576)"/>
<path d="M33.6999 77.0002C33.0999 75.3002 33.3999 73.6002 34.5999 73.1002C35.6999 72.6002 37.0999 73.6002 37.7999 75.2002C38.3999 76.9002 37.9999 78.6002 36.8999 79.1002C35.6999 79.6002 34.2999 78.7002 33.6999 77.0002Z" fill="url(#paint7_radial_702_1576)"/>
<path d="M57.8998 77.7002C56.7998 79.7002 54.2998 80.3002 52.2998 79.2002C50.2998 78.1002 49.6998 75.6002 50.7998 73.6002C51.8998 71.6002 58.9998 67.7002 58.9998 67.7002C58.9998 67.7002 58.9998 75.7002 57.8998 77.7002Z" fill="url(#paint8_radial_702_1576)"/>
<path d="M50.8999 77.0002C50.2999 75.3002 50.5999 73.6002 51.7999 73.1002C52.8999 72.6002 54.2999 73.6002 54.9999 75.2002C55.5999 76.9002 55.1999 78.6002 54.0999 79.1002C52.8999 79.6002 51.4999 78.7002 50.8999 77.0002Z" fill="url(#paint9_radial_702_1576)"/>
<path d="M75.1 77.7002C74 79.7002 71.5 80.3002 69.5 79.2002C67.5 78.1002 66.9 75.6002 68 73.6002C69.1 71.6002 76.2 67.7002 76.2 67.7002C76.2 67.7002 76.2 75.7002 75.1 77.7002Z" fill="url(#paint10_radial_702_1576)"/>
<path d="M68.1001 77.0002C67.5001 75.3002 67.8 73.6002 69 73.1002C70.1 72.6002 71.5 73.6002 72.2 75.2002C72.8 76.9002 72.4 78.6002 71.3 79.1002C70.1 79.6002 68.7001 78.7002 68.1001 77.0002Z" fill="url(#paint11_radial_702_1576)"/>
<path d="M32.1 92.0996C31 94.0996 28.5 94.6996 26.5 93.5996C24.5 92.4996 23.9 89.8996 25 87.9996C26.1 85.9996 33.2 82.0996 33.2 82.0996C33.2 82.0996 33.2 90.1996 32.1 92.0996Z" fill="url(#paint12_radial_702_1576)"/>
<path d="M25.1001 91.4992C24.5001 89.7992 24.8 88.0992 26 87.5992C27.1 87.0992 28.5 88.0992 29.2 89.6992C29.8 91.3992 29.4 93.0992 28.3 93.5992C27.1 94.0992 25.7001 93.0992 25.1001 91.4992Z" fill="url(#paint13_radial_702_1576)"/>
<path d="M49.3 92.0996C48.2 94.0996 45.7 94.6996 43.7 93.5996C41.7 92.4996 41.1 89.8996 42.2 87.9996C43.3 85.9996 50.4 82.0996 50.4 82.0996C50.4 82.0996 50.4 90.1996 49.3 92.0996Z" fill="url(#paint14_radial_702_1576)"/>
<path d="M42.3 91.4992C41.7 89.7992 42 88.0992 43.2 87.5992C44.3 87.0992 45.7 88.0992 46.4 89.6992C47 91.3992 46.6 93.0992 45.5 93.5992C44.3 94.0992 42.9 93.0992 42.3 91.4992Z" fill="url(#paint15_radial_702_1576)"/>
<path d="M66.4999 92.0996C65.3999 94.0996 62.8999 94.6996 60.8999 93.5996C58.8999 92.4996 58.2999 89.8996 59.3999 87.9996C60.4999 85.9996 67.5999 82.0996 67.5999 82.0996C67.5999 82.0996 67.5999 90.1996 66.4999 92.0996Z" fill="url(#paint16_radial_702_1576)"/>
<path d="M59.5 91.4992C58.9 89.7992 59.1999 88.0992 60.3999 87.5992C61.4999 87.0992 62.9 88.0992 63.6 89.6992C64.2 91.3992 63.7999 93.0992 62.6999 93.5992C61.4999 94.0992 60.1 93.0992 59.5 91.4992Z" fill="url(#paint17_radial_702_1576)"/>
<defs>
<radialGradient id="paint0_radial_702_1576" cx="0" cy="0" r="1" gradientUnits="userSpaceOnUse" gradientTransform="translate(57.575 13.7444) rotate(180) scale(70.2558 51.3219)">
<stop stop-color="white"/>
<stop offset="0.198" stop-color="#D5F3FF"/>
<stop offset="1" stop-color="#85BCF1"/>
</radialGradient>
<radialGradient id="paint1_radial_702_1576" cx="0" cy="0" r="1" gradientUnits="userSpaceOnUse" gradientTransform="translate(53.075 17.8396) rotate(126.034) scale(12.0915 17.6391)">
<stop stop-color="white"/>
<stop offset="1" stop-color="white" stop-opacity="0"/>
</radialGradient>
<radialGradient id="paint2_radial_702_1576" cx="0" cy="0" r="1" gradientUnits="userSpaceOnUse" gradientTransform="translate(78.6332 38.0991) rotate(126.034) scale(9.50297 13.863)">
<stop stop-color="white"/>
<stop offset="1" stop-color="white" stop-opacity="0"/>
</radialGradient>
<radialGradient id="paint3_radial_702_1576" cx="0" cy="0" r="1" gradientUnits="userSpaceOnUse" gradientTransform="translate(10.8452 51.4888) rotate(-25.7092) scale(4.87086 14.1795)">
<stop stop-color="white"/>
<stop offset="1" stop-color="white" stop-opacity="0"/>
</radialGradient>
<radialGradient id="paint4_radial_702_1576" cx="0" cy="0" r="1" gradientUnits="userSpaceOnUse" gradientTransform="translate(17.985 76.7678) rotate(30.0007) scale(9.89069 9.89069)">
<stop stop-color="#D0F2FF"/>
<stop offset="0.198" stop-color="#D5F3FF"/>
<stop offset="1" stop-color="#85BCF1"/>
</radialGradient>
<radialGradient id="paint5_radial_702_1576" cx="0" cy="0" r="1" gradientUnits="userSpaceOnUse" gradientTransform="translate(18.5076 76.1233) rotate(156.037) scale(2.21003 3.2239)">
<stop stop-color="white"/>
<stop offset="1" stop-color="white" stop-opacity="0"/>
</radialGradient>
<radialGradient id="paint6_radial_702_1576" cx="0" cy="0" r="1" gradientUnits="userSpaceOnUse" gradientTransform="translate(35.1776 76.7681) rotate(30.0007) scale(9.89068 9.89068)">
<stop stop-color="#D0F2FF"/>
<stop offset="0.198" stop-color="#D5F3FF"/>
<stop offset="1" stop-color="#85BCF1"/>
</radialGradient>
<radialGradient id="paint7_radial_702_1576" cx="0" cy="0" r="1" gradientUnits="userSpaceOnUse" gradientTransform="translate(35.7003 76.1233) rotate(156.037) scale(2.21003 3.2239)">
<stop stop-color="white"/>
<stop offset="1" stop-color="white" stop-opacity="0"/>
</radialGradient>
<radialGradient id="paint8_radial_702_1576" cx="0" cy="0" r="1" gradientUnits="userSpaceOnUse" gradientTransform="translate(52.3708 76.7679) rotate(30.0007) scale(9.89108 9.89108)">
<stop stop-color="#D0F2FF"/>
<stop offset="0.198" stop-color="#D5F3FF"/>
<stop offset="1" stop-color="#85BCF1"/>
</radialGradient>
<radialGradient id="paint9_radial_702_1576" cx="0" cy="0" r="1" gradientUnits="userSpaceOnUse" gradientTransform="translate(52.8931 76.1235) rotate(156.037) scale(2.21003 3.2239)">
<stop stop-color="white"/>
<stop offset="1" stop-color="white" stop-opacity="0"/>
</radialGradient>
<radialGradient id="paint10_radial_702_1576" cx="0" cy="0" r="1" gradientUnits="userSpaceOnUse" gradientTransform="translate(69.5637 76.7681) rotate(30.0007) scale(9.89068 9.89068)">
<stop stop-color="#D0F2FF"/>
<stop offset="0.198" stop-color="#D5F3FF"/>
<stop offset="1" stop-color="#85BCF1"/>
</radialGradient>
<radialGradient id="paint11_radial_702_1576" cx="0" cy="0" r="1" gradientUnits="userSpaceOnUse" gradientTransform="translate(70.0861 76.1232) rotate(156.037) scale(2.21003 3.2239)">
<stop stop-color="white"/>
<stop offset="1" stop-color="white" stop-opacity="0"/>
</radialGradient>
<radialGradient id="paint12_radial_702_1576" cx="0" cy="0" r="1" gradientUnits="userSpaceOnUse" gradientTransform="translate(26.5817 91.2127) rotate(30.0007) scale(9.89068 9.89068)">
<stop stop-color="#D0F2FF"/>
<stop offset="0.198" stop-color="#D5F3FF"/>
<stop offset="1" stop-color="#85BCF1"/>
</radialGradient>
<radialGradient id="paint13_radial_702_1576" cx="0" cy="0" r="1" gradientUnits="userSpaceOnUse" gradientTransform="translate(27.1039 90.5679) rotate(156.037) scale(2.21003 3.2239)">
<stop stop-color="white"/>
<stop offset="1" stop-color="white" stop-opacity="0"/>
</radialGradient>
<radialGradient id="paint14_radial_702_1576" cx="0" cy="0" r="1" gradientUnits="userSpaceOnUse" gradientTransform="translate(43.7745 91.2127) rotate(30.0007) scale(9.89078 9.89078)">
<stop stop-color="#D0F2FF"/>
<stop offset="0.198" stop-color="#D5F3FF"/>
<stop offset="1" stop-color="#85BCF1"/>
</radialGradient>
<radialGradient id="paint15_radial_702_1576" cx="0" cy="0" r="1" gradientUnits="userSpaceOnUse" gradientTransform="translate(44.297 90.5679) rotate(156.037) scale(2.21017 3.22411)">
<stop stop-color="white"/>
<stop offset="1" stop-color="white" stop-opacity="0"/>
</radialGradient>
<radialGradient id="paint16_radial_702_1576" cx="0" cy="0" r="1" gradientUnits="userSpaceOnUse" gradientTransform="translate(60.9673 91.2128) rotate(30.0007) scale(9.89069 9.89069)">
<stop stop-color="#D0F2FF"/>
<stop offset="0.198" stop-color="#D5F3FF"/>
<stop offset="1" stop-color="#85BCF1"/>
</radialGradient>
<radialGradient id="paint17_radial_702_1576" cx="0" cy="0" r="1" gradientUnits="userSpaceOnUse" gradientTransform="translate(61.4898 90.5679) rotate(156.037) scale(2.21017 3.22411)">
<stop stop-color="white"/>
<stop offset="1" stop-color="white" stop-opacity="0"/>
</radialGradient>
</defs>
</svg>
